<svg width="282" height="234" viewBox="0 0 282 234" fill="none" xmlns="http://www.w3.org/2000/svg">
<path d="M140.648 128.34C134.886 123.86 129.854 118.512 125.732 112.489C121.721 106.436 118.571 99.8564 116.372 92.9379C114.11 86.2144 112.665 79.2435 112.071 72.176C111.443 65.1151 112.062 58.0002 113.9 51.1566C114.841 47.71 116.276 44.4183 118.16 41.3836C120.077 38.205 122.67 35.4881 125.756 33.4258C129.226 31.162 133.354 30.1253 137.484 30.4808C141.7 30.9539 145.697 32.6123 149.011 35.2636C150.585 36.4658 152.058 37.7947 153.415 39.237C154.669 40.6565 155.848 42.1406 156.947 43.6832C158.007 45.1644 158.97 46.7129 159.83 48.319L161.238 50.762L162.376 53.1561C165.163 59.302 167.346 65.7037 168.895 72.2708C170.501 78.6851 171.191 85.2935 170.944 91.8993C170.704 98.1645 169.557 104.361 167.538 110.295L166.838 112.445L165.947 114.511C165.373 115.87 164.778 117.286 164.187 118.585C162.932 121.195 161.542 123.739 160.024 126.205C159.137 127.629 158.173 129.012 157.21 130.395C158.603 131.088 159.925 131.623 161.435 132.321C167.096 134.668 173.047 136.243 179.126 137.003C184.955 137.657 190.849 137.417 196.604 136.293C207.531 133.81 217.749 128.881 226.492 121.877C234.68 115.309 241.911 107.63 247.977 99.0633C253.559 91.2366 258.498 82.9709 262.748 74.3471C266.554 66.8272 269.854 59.0612 272.626 51.1007C276.751 39.4511 278.94 27.2031 279.108 14.8421C279.06 5.95825 277.961 0.902914 278.483 0.980657C279.05 2.09006 279.427 3.28668 279.598 4.5206C280.354 7.9494 280.845 11.4309 281.068 14.9345C281.652 27.5729 279.984 40.2123 276.141 52.2617C273.605 60.5081 270.502 68.5685 266.853 76.3852C262.751 85.3647 257.922 93.9926 252.412 102.183C246.291 111.309 238.908 119.521 230.481 126.574C221.195 134.372 210.233 139.923 198.449 142.795C192.024 144.187 185.421 144.577 178.875 143.952C172.047 143.222 165.351 141.554 158.978 138.993C156.77 138.142 154.612 137.166 152.515 136.07C148.372 141.039 143.789 145.623 138.823 149.768C125.516 160.684 110.669 169.575 94.7617 176.153C83.2683 181.001 71.4018 184.914 59.2778 187.854C45.8696 191.215 32.1368 193.121 18.3172 193.539L14.0043 193.495L17.5426 195.609C21.2854 197.984 24.7709 200.484 28.0651 202.901C33.8331 207.256 39.2604 212.045 44.2995 217.227C52.9184 226.099 56.9393 232.604 56.1778 233.237C55.4164 233.869 49.906 228.786 40.7908 221.275C36.1642 217.546 30.6472 213.181 24.2173 208.802C20.9936 206.583 17.5759 204.356 13.9815 202.182C12.1547 201.103 10.3093 200.004 8.4237 198.943C7.47153 198.402 6.59275 197.981 5.24494 197.095C3.45248 195.981 2.0728 194.312 1.31621 192.342C0.935994 191.278 0.778474 190.148 0.85338 189.021C0.925769 188.139 1.11398 187.27 1.41326 186.437C1.8867 185.22 2.48912 184.056 3.21024 182.967C4.30423 181.2 5.43563 179.474 6.5081 177.764C8.71056 174.367 10.8686 171.124 12.9434 168.034C17.1677 161.933 21.1283 156.677 24.6726 152.183C31.5946 143.501 36.6135 138.537 37.5025 139.212C38.3915 139.886 35.0773 146.079 29.3464 155.681L19.1404 172.404C17.2128 175.546 15.2086 178.833 13.1279 182.267C12.0942 183.978 11.0204 185.726 9.94653 187.474C9.91489 187.52 9.87373 187.558 9.82587 187.586C11.489 187.279 13.8535 186.92 17.2489 186.541C30.4496 184.94 43.5298 182.473 56.4052 179.156C68.0052 176.038 79.365 172.09 90.3967 167.342C105.466 160.974 119.544 152.479 132.201 142.116C136.34 138.634 140.201 134.833 143.748 130.749C142.668 129.99 141.587 129.23 140.547 128.434L140.648 128.34ZM151.528 120.369C152.905 118.203 154.167 115.966 155.308 113.668C155.855 112.522 156.345 111.316 156.875 110.111L157.64 108.313L158.252 106.431C160.045 101.351 161.063 96.0296 161.272 90.6451C161.524 84.9454 160.965 79.2379 159.612 73.6938C158.287 67.7809 156.38 62.0133 153.918 56.4756L152.963 54.3993L151.888 52.4352C151.187 51.1344 150.415 49.8729 149.576 48.6563C148.785 47.4024 147.886 46.4749 146.92 45.2339C145.996 44.233 144.989 43.3114 143.911 42.4786C142.193 40.8713 139.994 39.8764 137.654 39.6486C135.314 39.4209 132.966 39.9732 130.974 41.2194C126.636 44.479 123.567 49.1469 122.294 54.4234C120.671 60.2587 120.076 66.3332 120.537 72.3747C121.009 78.7377 122.243 85.0219 124.213 91.092C126.054 97.2248 128.747 103.069 132.214 108.454C135.785 113.749 140.158 118.456 145.177 122.406C146.253 123.282 147.37 124.12 148.487 124.92C149.571 123.425 150.617 121.928 151.686 120.297" fill="#5AB6E9"/>
</svg>
