<svg width="114" height="114" viewBox="0 0 114 114" fill="none" xmlns="http://www.w3.org/2000/svg">
<circle cx="57" cy="57" r="57" fill="#577BE6"/>
<path d="M67.0909 46.0909C66.8182 43.7879 65.7121 42 63.7727 40.7273C61.8333 39.4545 59.4545 38.8182 56.6364 38.8182C54.5758 38.8182 52.7727 39.1515 51.2273 39.8182C49.697 40.4848 48.5 41.4015 47.6364 42.5682C46.7879 43.7348 46.3636 45.0606 46.3636 46.5455C46.3636 47.7879 46.6591 48.8561 47.25 49.75C47.8561 50.6288 48.6288 51.3636 49.5682 51.9545C50.5076 52.5303 51.4924 53.0076 52.5227 53.3864C53.553 53.75 54.5 54.0455 55.3636 54.2727L60.0909 55.5455C61.303 55.8636 62.6515 56.303 64.1364 56.8636C65.6364 57.4242 67.0682 58.1894 68.4318 59.1591C69.8106 60.1136 70.947 61.3409 71.8409 62.8409C72.7349 64.3409 73.1818 66.1818 73.1818 68.3636C73.1818 70.8788 72.5227 73.1515 71.2045 75.1818C69.9015 77.2121 67.9924 78.8258 65.4773 80.0227C62.9773 81.2197 59.9394 81.8182 56.3636 81.8182C53.0303 81.8182 50.1439 81.2803 47.7045 80.2045C45.2803 79.1288 43.3712 77.6288 41.9773 75.7045C40.5985 73.7803 39.8182 71.5455 39.6364 69H45.4545C45.6061 70.7576 46.197 72.2121 47.2273 73.3636C48.2727 74.5 49.5909 75.3485 51.1818 75.9091C52.7879 76.4545 54.5152 76.7273 56.3636 76.7273C58.5152 76.7273 60.447 76.3788 62.1591 75.6818C63.8712 74.9697 65.2273 73.9848 66.2273 72.7273C67.2273 71.4545 67.7273 69.9697 67.7273 68.2727C67.7273 66.7273 67.2955 65.4697 66.4318 64.5C65.5682 63.5303 64.4318 62.7424 63.0227 62.1364C61.6136 61.5303 60.0909 61 58.4545 60.5455L52.7273 58.9091C49.0909 57.8636 46.2121 56.3712 44.0909 54.4318C41.9697 52.4924 40.9091 49.9545 40.9091 46.8182C40.9091 44.2121 41.6136 41.9394 43.0227 40C44.447 38.0455 46.3561 36.5303 48.75 35.4545C51.1591 34.3636 53.8485 33.8182 56.8182 33.8182C59.8182 33.8182 62.4848 34.3561 64.8182 35.4318C67.1515 36.4924 69 37.947 70.3636 39.7955C71.7424 41.6439 72.4697 43.7424 72.5455 46.0909H67.0909Z" fill="#F5F5F5"/>
<rect x="23" y="59.9655" width="37" height="3.28476" transform="rotate(-27.2921 23 59.9655)" fill="#577BE6"/>
<rect x="52" y="69.9655" width="37" height="3.28476" transform="rotate(-27.2921 52 69.9655)" fill="#577BE6"/>
</svg>
