<svg width="19" height="19" viewBox="0 0 19 19" fill="none" xmlns="http://www.w3.org/2000/svg">
<path d="M9.08789 18.1758C14.0713 18.1758 18.1846 14.0625 18.1846 9.08789C18.1846 4.11328 14.0625 0 9.0791 0C4.10449 0 0 4.11328 0 9.08789C0 14.0625 4.11328 18.1758 9.08789 18.1758ZM4.79004 6.79395C4.32422 6.79395 3.99902 6.50391 3.99902 6.06445C3.99902 5.625 4.32422 5.33496 4.79004 5.33496H13.4033C13.8691 5.33496 14.1855 5.625 14.1855 6.06445C14.1855 6.50391 13.8691 6.79395 13.4033 6.79395H9.09668H4.79004ZM4.79004 9.81738C4.32422 9.81738 3.99902 9.52734 3.99902 9.0791C3.99902 8.63965 4.32422 8.34961 4.79004 8.34961H13.4033C13.8691 8.34961 14.1855 8.63965 14.1855 9.0791C14.1855 9.52734 13.8691 9.81738 13.4033 9.81738H4.79004ZM4.79004 12.832C4.32422 12.832 3.99902 12.542 3.99902 12.1025C3.99902 11.6719 4.32422 11.373 4.79004 11.373H13.4033C13.8691 11.373 14.1855 11.6719 14.1855 12.1025C14.1855 12.542 13.8691 12.832 13.4033 12.832H4.79004Z" fill="white"/>
</svg>
